<svg width="75" height="59" viewBox="0 0 75 59" fill="none" xmlns="http://www.w3.org/2000/svg">
<path d="M4.13163 51V9.9166H18.9705C24.0332 9.9166 27.2338 11.3714 29.2123 13.6991C30.6671 15.503 31.5982 17.8307 31.5982 20.6239C31.5982 25.221 29.0959 28.3052 26.6519 29.1199V29.5272C29.1541 29.8182 33.1111 33.1351 33.1111 39.0707C33.1111 42.7368 32.1801 45.3554 30.4343 47.3921C28.4558 49.5452 25.6044 51 19.4943 51H4.13163ZM11.3474 27.4323L12.2785 27.3159H18.3886C22.1711 27.3159 24.0332 25.512 24.0332 21.555C24.0332 18.1216 22.2875 16.0267 18.505 16.0267H12.2785L11.3474 15.9104L11.5802 16.8996V26.4431L11.3474 27.4323ZM11.3474 45.0062L12.2785 44.8899H19.4943C23.5095 44.8899 25.2552 42.795 25.2552 38.7215C25.2552 35.0555 23.3349 33.1351 19.5525 33.1351H12.2785L11.3474 33.0187L11.522 34.008V44.017L11.3474 45.0062Z" fill="white"/>
<path d="M58.3339 51.8729C50.8271 51.8729 46.0554 48.9633 43.3204 45.3554L42.3311 44.0752C41.982 43.6678 41.8656 43.4351 41.8656 42.8532L47.6848 39.8272L48.3249 40.5837C50.5362 43.4933 53.6203 45.5882 58.3921 45.5882C62.7564 45.5882 65.3169 43.3187 65.3169 39.8854C65.3169 36.5684 62.5819 34.9973 59.5559 34.4153L55.1915 33.4843C51.409 32.7278 48.1503 31.3894 46.0554 29.1199C44.1933 27.1996 43.0876 24.5809 43.0876 21.264C43.0876 13.6409 48.965 9.04373 56.9955 9.04373C64.0949 9.04373 68.4592 12.5934 70.3214 15.0375L71.0197 15.8522C71.3688 16.2013 71.4852 16.5505 71.4852 17.1324L65.666 20.1584L64.7932 19.0527C63.222 17.016 60.5452 15.2702 56.8209 15.2702C52.6311 15.2702 50.3616 17.5397 50.3616 20.5657C50.3616 23.7662 52.5147 25.1628 55.7152 25.803L60.487 26.8504C64.735 27.7815 67.9355 29.1199 70.0304 31.4476C71.6598 33.3097 72.649 35.6374 72.649 38.7797C72.649 46.3447 67.3536 51.8729 58.3339 51.8729Z" fill="white"/>
<g clip-path="url(#clip0_2537_323)">
<rect width="69.5069" height="12.1233" transform="translate(4.04094 23.4385)" fill="#031830"/>
<path d="M4.03601 33.4385V25.45H6.92135C7.90576 25.45 8.52809 25.7329 8.9128 26.1855C9.19568 26.5363 9.37672 26.9889 9.37672 27.532C9.37672 28.4259 8.89017 29.0256 8.41494 29.184V29.2632C8.90149 29.3198 9.67091 29.9648 9.67091 31.1189C9.67091 31.8317 9.48987 32.3409 9.15042 32.7369C8.7657 33.1556 8.21127 33.4385 7.02318 33.4385H4.03601ZM5.43907 28.8559L5.62012 28.8332H6.8082C7.54368 28.8332 7.90576 28.4825 7.90576 27.7131C7.90576 27.0455 7.56631 26.6381 6.83083 26.6381H5.62012L5.43907 26.6155L5.48433 26.8078V28.6635L5.43907 28.8559ZM5.43907 32.273L5.62012 32.2504H7.02318C7.80392 32.2504 8.14338 31.8431 8.14338 31.051C8.14338 30.3381 7.76998 29.9648 7.0345 29.9648H5.62012L5.43907 29.9421L5.47302 30.1345V32.0807L5.43907 32.273ZM11.0567 26.3666V25.1106H12.471V26.3666H11.0567ZM11.0906 33.4385V27.5094H12.4371V33.4385H11.0906ZM15.258 30.4513C15.258 31.4131 15.3372 31.8431 15.5522 32.1146C15.7106 32.307 15.9369 32.4201 16.2763 32.4201C16.6045 32.4201 16.8308 32.307 16.9892 32.1146C17.2155 31.8431 17.2834 31.4131 17.2834 30.4513C17.2834 29.5121 17.2155 29.1387 17.0118 28.8672C16.8534 28.6635 16.6158 28.5504 16.265 28.5504C15.9369 28.5504 15.6993 28.6635 15.5409 28.8672C15.3372 29.1387 15.258 29.5121 15.258 30.4513ZM13.8662 30.4513C13.8662 29.2406 14.0812 28.573 14.4659 28.1204C14.8733 27.6565 15.473 27.3962 16.2763 27.3962C17.0797 27.3962 17.6794 27.6565 18.0641 28.1204C18.4602 28.573 18.6865 29.2293 18.6865 30.4513C18.6865 31.7186 18.4488 32.4201 18.0189 32.884C17.6228 33.3253 17.0345 33.5856 16.2763 33.5856C15.5182 33.5856 14.9185 33.3253 14.5112 32.884C14.0925 32.4201 13.8662 31.7186 13.8662 30.4513ZM20.1122 33.4385V27.5094H21.3568V28.3014L21.6623 27.9394C21.9905 27.532 22.3525 27.3962 22.8504 27.3962C23.4275 27.3962 23.8348 27.5999 24.129 27.9507C24.4571 28.3241 24.6042 28.8672 24.6042 29.7158V33.4385H23.2577V29.5348C23.2577 29.1048 23.088 28.5504 22.4091 28.5504C21.9113 28.5504 21.4586 28.9464 21.4586 29.5348V33.4385H20.1122ZM28.008 33.5629H27.8948C26.8425 33.5629 26.3899 32.8048 26.3899 31.8996V28.7427L26.4125 28.5504L26.2428 28.573H25.6884V27.5094H26.2428L26.4125 27.532L26.3899 27.3397V26.0724H27.7251V27.3397L27.7024 27.532L27.8835 27.5094H28.6869V28.573H27.8835L27.7024 28.5504L27.7251 28.7427V31.7073C27.7251 32.058 27.8835 32.3635 28.189 32.3635H28.6869V33.3819C28.5963 33.4951 28.2795 33.5629 28.008 33.5629ZM35.3293 33.6082C33.8697 33.6082 32.9419 33.0424 32.41 32.3409L32.2177 32.092C32.1498 32.0128 32.1272 31.9675 32.1272 31.8544L33.2587 31.266L33.3831 31.4131C33.8131 31.9788 34.4128 32.3862 35.3406 32.3862C36.1893 32.3862 36.6871 31.9449 36.6871 31.2773C36.6871 30.6323 36.1553 30.3268 35.5669 30.2137L34.7183 30.0326C33.9828 29.8855 33.3492 29.6253 32.9419 29.184C32.5798 28.8106 32.3648 28.3014 32.3648 27.6565C32.3648 26.1742 33.5076 25.2803 35.0691 25.2803C36.4495 25.2803 37.2982 25.9705 37.6602 26.4458L37.796 26.6042C37.8639 26.6721 37.8865 26.74 37.8865 26.8531L36.755 27.4415L36.5853 27.2265C36.2798 26.8305 35.7593 26.491 35.0351 26.491C34.2205 26.491 33.7792 26.9323 33.7792 27.5207C33.7792 28.143 34.1978 28.4146 34.8202 28.5391L35.748 28.7427C36.574 28.9238 37.1963 29.184 37.6037 29.6366C37.9205 29.9987 38.1128 30.4513 38.1128 31.0623C38.1128 32.5333 37.0832 33.6082 35.3293 33.6082ZM41.6985 33.5856C40.8385 33.5856 40.2501 33.3366 39.8654 32.9067C39.4581 32.4654 39.2544 31.877 39.2544 30.5192C39.2544 29.2519 39.4581 28.5843 39.8315 28.1317C40.2275 27.6678 40.7593 27.3962 41.608 27.3962C42.3548 27.3962 42.9318 27.6452 43.3278 28.1091C43.7239 28.5617 43.9275 29.184 43.9275 30.2137V30.8247H40.7367L40.567 30.8021L40.5783 30.9831C40.5783 31.0057 40.5783 31.051 40.5783 31.0849C40.5896 31.9675 40.9177 32.4993 41.7211 32.4993C42.2303 32.4993 42.5584 32.2164 42.8074 31.9223L42.9997 31.6846L43.8823 32.1372C43.8823 32.2957 43.8597 32.3522 43.8031 32.4314L43.622 32.6464C43.1129 33.2461 42.5018 33.5856 41.6985 33.5856ZM40.567 29.9082L40.7254 29.8855H42.4453L42.5924 29.9082L42.5811 29.7158V29.5348C42.5811 28.9917 42.2755 28.4485 41.608 28.4485C40.8272 28.4485 40.5896 28.9917 40.5896 29.5348V29.7158L40.567 29.9082ZM45.3567 33.4385V27.5094H46.5561V28.358L46.839 27.9846C47.0426 27.7017 47.4274 27.4302 47.7555 27.4302H47.9252C48.0271 27.4302 48.1515 27.4867 48.2081 27.5886V28.8219H47.5405C47.1105 28.8219 46.7032 29.1274 46.7032 29.7271V33.4385H45.3567ZM50.5972 33.4385L48.7529 27.5094H50.1899L51.0725 31.0397L51.1969 31.6054H51.2422L51.3667 31.0397L52.2719 27.5094H53.6523L51.774 33.4385H50.5972ZM54.6427 26.3666V25.1106H56.057V26.3666H54.6427ZM54.6766 33.4385V27.5094H56.0231V33.4385H54.6766ZM59.7266 33.5856C59.059 33.5856 58.4819 33.3819 58.0859 32.9406C57.6899 32.522 57.4522 31.9788 57.4522 30.5305C57.4522 29.1274 57.6785 28.573 58.0293 28.1543C58.448 27.6452 59.0477 27.3962 59.7266 27.3962C60.4847 27.3962 61.0844 27.7017 61.5936 28.3014L61.7859 28.5277C61.8538 28.6069 61.8764 28.6635 61.8764 28.8219L60.9373 29.3198L60.6997 29.0369C60.4168 28.6861 60.1905 28.5504 59.8397 28.5504C59.5116 28.5504 59.2966 28.6748 59.1382 28.8672C58.9119 29.1727 58.844 29.6366 58.844 30.44C58.844 31.4923 58.9006 31.877 59.1156 32.1372C59.274 32.3183 59.5003 32.4201 59.851 32.4201C60.2131 32.4201 60.4281 32.2504 60.6997 31.9336L60.9486 31.6507L61.8764 32.1372C61.8764 32.2843 61.8651 32.3522 61.7859 32.4314L61.5822 32.6691C61.0391 33.2914 60.5639 33.5856 59.7266 33.5856ZM65.2966 33.5856C64.4366 33.5856 63.8483 33.3366 63.4635 32.9067C63.0562 32.4654 62.8525 31.877 62.8525 30.5192C62.8525 29.2519 63.0562 28.5843 63.4296 28.1317C63.8256 27.6678 64.3574 27.3962 65.2061 27.3962C65.9529 27.3962 66.5299 27.6452 66.926 28.1091C67.322 28.5617 67.5257 29.184 67.5257 30.2137V30.8247H64.3348L64.1651 30.8021L64.1764 30.9831C64.1764 31.0057 64.1764 31.051 64.1764 31.0849C64.1877 31.9675 64.5158 32.4993 65.3192 32.4993C65.8284 32.4993 66.1565 32.2164 66.4055 31.9223L66.5978 31.6846L67.4804 32.1372C67.4804 32.2957 67.4578 32.3522 67.4012 32.4314L67.2201 32.6464C66.711 33.2461 66.1 33.5856 65.2966 33.5856ZM64.1651 29.9082L64.3235 29.8855H66.0434L66.1905 29.9082L66.1792 29.7158V29.5348C66.1792 28.9917 65.8737 28.4485 65.2061 28.4485C64.4253 28.4485 64.1877 28.9917 64.1877 29.5348V29.7158L64.1651 29.9082ZM70.9802 33.5969C69.8826 33.5969 69.1585 33.0424 68.7738 32.5785L68.6493 32.4314C68.5814 32.3522 68.5701 32.2843 68.5701 32.1372L69.4753 31.662L69.5432 31.7525C69.8826 32.1712 70.3805 32.5333 71.0481 32.5333C71.6252 32.5333 71.8854 32.2504 71.8854 31.8204C71.8854 31.3678 71.5686 31.1868 71.1273 31.1076L70.2673 30.9265C69.4866 30.7568 68.6946 30.2476 68.6946 29.2745C68.6946 28.1883 69.3848 27.351 70.8784 27.351C71.7836 27.351 72.4398 27.7923 72.8019 28.2109L72.9151 28.3354C72.983 28.4146 73.0056 28.4825 73.0056 28.6296L72.1004 29.1161L72.0099 29.0143C71.6817 28.6409 71.3536 28.392 70.7765 28.392C70.2108 28.392 69.9618 28.7314 69.9618 29.0822C69.9618 29.4895 70.3126 29.6366 70.7992 29.7384L71.6591 29.9308C72.3719 30.0779 73.1753 30.5644 73.1753 31.6507C73.1753 32.7483 72.4738 33.5969 70.9802 33.5969Z" fill="white"/>
</g>
<defs>
<clipPath id="clip0_2537_323">
<rect width="69.5069" height="12.1233" fill="white" transform="translate(4.04094 23.4385)"/>
</clipPath>
</defs>
</svg>
